<mxfile host="app.diagrams.net" modified="2024-02-02T06:22:49.189Z" agent="Mozilla/5.0 (Windows NT 10.0; Win64; x64) AppleWebKit/537.36 (KHTML, like Gecko) Chrome/121.0.0.0 Safari/537.36" version="22.1.21" etag="pLbEM8CJ72mdecVsqxpl" type="github">
  <diagram name="페이지-1" id="iY4bYi8lgcxu7r2HzVf3">
    <mxGraphModel>
      <root>
        <mxCell id="0" />
        <mxCell id="1" parent="0" />
      </root>
    </mxGraphModel>
  </diagram>
</mxfile>
